<?xml version="1.0" encoding="UTF-8" ?>
<!DOCTYPE svg PUBLIC "-//W3C//DTD SVG 1.1//EN" "http://www.w3.org/Graphics/SVG/1.1/DTD/svg11.dtd">
<svg width="512pt" height="512pt" viewBox="0 0 512 512" version="1.1" xmlns="http://www.w3.org/2000/svg">
<g id="#000000ff">
<path fill="#000000" opacity="1.00" d=" M 59.42 54.20 C 63.11 52.83 67.09 52.91 70.97 53.00 C 195.97 52.99 320.98 53.03 445.98 52.98 C 448.21 53.01 450.36 53.71 452.53 54.19 C 453.56 54.92 454.61 55.64 455.70 56.31 C 457.53 58.88 459.26 61.75 459.01 65.06 C 458.99 191.37 459.01 317.68 459.00 443.99 C 461.22 446.22 463.44 448.46 465.68 450.68 C 460.67 455.71 455.63 460.71 450.63 465.75 C 448.38 463.50 446.12 461.25 443.87 459.00 C 317.58 459.01 191.29 458.98 65.00 459.01 C 60.49 459.25 56.25 456.49 54.17 452.57 C 52.46 447.56 53.10 442.24 53.00 437.06 C 52.99 313.39 53.01 189.71 52.99 66.03 C 52.99 63.77 53.47 61.56 54.20 59.43 C 55.03 58.49 55.73 57.43 56.33 56.33 C 57.45 55.76 58.48 55.04 59.42 54.20 M 90.01 75.01 C 145.36 130.36 200.71 185.72 256.07 241.06 C 311.42 185.72 366.78 130.37 422.11 75.01 C 311.41 75.00 200.71 75.00 90.01 75.01 M 75.01 90.14 C 75.00 200.80 74.99 311.45 75.01 422.10 C 130.36 366.80 185.67 311.45 241.00 256.14 C 185.67 200.80 130.35 145.46 75.01 90.14 M 271.12 256.13 C 326.42 311.41 381.69 366.71 436.99 421.99 C 437.00 311.41 437.00 200.83 436.99 90.26 C 381.69 145.54 326.40 200.83 271.12 256.13 M 90.26 437.00 C 200.79 437.00 311.33 437.00 421.86 437.00 C 366.60 381.72 311.33 326.46 256.06 271.19 C 200.79 326.45 145.52 381.72 90.26 437.00 Z" />
</g>
</svg>
