<svg xmlns="http://www.w3.org/2000/svg" width="928.22" height="369.56" viewBox="0 0 928.22 369.56">
  <defs>
    <style>
      .a {
        fill: #9f9f9f;
      }
    </style>
  </defs>
  <title>card_placeholder</title>
  <g>
    <path class="a" d="M811.42,677.34c31.68-17.43,74.68-12.86,101.06,12.27-6.18,8.77-11.55,18.32-18.91,26.14-6.14-3.94-11.47-9.23-18.4-11.84-16.25-6.5-36.43-5.18-50,6.5-19.84,14.86-22.45,44.88-11.54,65.85,7.48,12.89,21.52,22.68,36.77,22.5,10.59.12,22.13-.65,31.09-6.9,2-14.43.31-29.05.79-43.55,12-.06,24,0,36,0-.32,18.86.9,37.82-.5,56.59-9.67,12.93-25.12,20.4-40.57,24-24.77,5.07-52.59,3-73.41-12.5-15.61-10.63-26.54-27.47-31.24-45.61-4.66-21.59-2.44-45.38,9.16-64.51C789.19,694.48,799.74,684.82,811.42,677.34Z" transform="translate(-183.7 -666.89)"/>
    <path class="a" d="M184.37,670.23c11.7.25,23.41.27,35.11,0,0,52.86-.14,105.72.09,158.58-11.82,1-23.68.61-35.5.2-.7-48.32-.17-96.68-.24-145C183.82,679.38,184,674.8,184.37,670.23Z" transform="translate(-183.7 -666.89)"/>
    <path class="a" d="M303.66,671.09c14.39-.61,28.82-.34,43.24-.32,4.42-.81,6.41,3.59,8.12,6.78,10.7,22.24,21.07,44.6,31.29,67A55.84,55.84,0,0,0,392.68,756c9.7-19.44,18.45-39.37,28.17-58.82,4.14-7.93,6.41-16.77,11.46-24.22,1.41-2.62,4.86-1.94,7.32-2.28,13.83.07,27.67-.18,41.49.32.32,48.36.1,96.72.25,145.1,0,4.58-.38,9.17-.77,13.76-11.72-.21-23.41-.23-35.11,0q-.27-40.82,0-81.64c0-4.9-.24-9.81-.7-14.67a61.17,61.17,0,0,0-4.82,7.79c-10.32,22.2-21.91,43.77-32.2,66-2.05,3.2-3,8.5-7.46,9-6.22.56-12.84,1.29-18.86-.68-14.72-26.89-26.27-55.5-41.58-82.07a200.19,200.19,0,0,0-.82,25.34q0,35.44.07,70.9c-11.73-.25-23.46-.2-35.2,0-1.3-29.56-.19-59.17-.55-88.76C303.59,717.77,303,694.43,303.66,671.09Z" transform="translate(-183.7 -666.89)"/>
    <path class="a" d="M613.37,671.43c9.88-1.41,20-.61,29.93-.59,5.17-.84,6.58,4.77,8.33,8.36,16.52,39.23,33.66,78.18,50.46,117.29,4.11,11,10.08,21.14,13.31,32.41-12.63.64-25.29.59-37.9.07-4.6-11-8.5-22.41-14.07-33-3.64-1-7.46-.84-11.18-.88-18.34.27-36.68,0-55,.11-5,11.23-9.16,22.88-14.68,33.9-12.5.32-25,.44-37.46-.11,8-20.9,17-41.41,26.18-61.81,10.85-25.32,21.53-50.73,32.82-75.86C607.07,684.66,609,677.39,613.37,671.43Zm-2.28,92.33h37.7c-4.54-15.33-12-29.56-18.36-44.15C623.63,734.15,616.82,748.75,611.09,763.76Z" transform="translate(-183.7 -666.89)"/>
    <path class="a" d="M994.77,671.05q57.24-.76,114.51,0,.29,15.62,0,31.21c-26,.52-52.15.31-78.2.07-.5,11-.52,22,0,32.93,23.61-.18,47.23-.57,70.84.16.13,10.06.16,20.13-.19,30.18-23.61-.17-47.24-.44-70.85.11-.21,10.7-.26,21.41.11,32.11,26.82,0,53.65-.62,80.45.32a273.52,273.52,0,0,1,0,30.84c-18.55.77-37.14.13-55.7.34-20.28-.21-40.59.41-60.88-.32-.94-42.38-.14-84.79-.39-127.17C994.5,691.55,994.32,681.3,994.77,671.05Z" transform="translate(-183.7 -666.89)"/>
    <path class="a" d="M444.54,910.21c8.17-7.2,20-7.89,30.27-6,7.52,1.27,13.81,6.73,17,13.52,4.55,9.28,4.36,19.93,4.57,30-3.48.11-6.94.18-10.41.25-.86-9.57.38-20.12-5-28.62-5.36-8-16.79-8.65-24.91-4.93-7.81,3.75-10.29,13.27-10.56,21.25-.19,19.66.18,39.32,0,59,.07,8.13-.43,16.92,4,24.13,4.76,8.48,16.46,10,24.89,7,12.34-6.82,11.05-22.91,11.91-35,3.43,0,6.88,0,10.34.11.16,11.66,0,24.3-6.68,34.39-4.73,7.2-13.28,11-21.73,11.09-9.16.22-19.5-1.53-25.75-8.86-7.29-8.59-8.45-20.36-8.57-31.16-.24-19-.36-38.07.14-57.09C434.28,928.91,436.58,917.57,444.54,910.21Z" transform="translate(-183.7 -666.89)"/>
    <path class="a" d="M724.29,904.48c10.79-2.56,23.36-1.86,32.16,5.57,7.81,6.25,10.25,16.62,11.06,26.13.69,14.73,0,29.48.21,44.23-.19,13.34,1.56,27.41-4.18,39.93a25.41,25.41,0,0,1-20.37,15.36c-9.66,1.18-20.7,1.52-28.74-4.86-7.89-5.91-11.34-15.91-12.18-25.39-1.08-14.27-.44-28.61-.62-42.9.12-11.59-.5-23.29,1.55-34.73C705.29,917,713.11,906.85,724.29,904.48Zm3.41,8.77c-10,2.07-14.19,13.34-14.18,22.5-.1,22,.07,44.11-.09,66.16-.17,9.41,3.75,20.07,13,24,9,3.43,21.2,1.06,26.16-7.82,3.57-6,3.59-13.13,3.59-19.82-.18-20.25-.09-40.52.05-60.77.13-8-2.48-16.75-9-21.88C741.52,911.85,734.15,912.1,727.7,913.25Z" transform="translate(-183.7 -666.89)"/>
    <path class="a" d="M184.42,905.37a251,251,0,0,1,35.65,0c8.05.72,16.62,4.22,20.69,11.61,6.54,10.89,6.65,24.41,4.24,36.54-1.77,8.57-6.56,17.28-15,20.73-10.93,4.55-23.05,1.88-34.52,2.8.09,19.11.5,38.26-.18,57.37-3.6,0-7.23-.11-10.82-.18C184.19,991.27,184.39,948.32,184.42,905.37Zm10.81,9.27c.09,17.68.69,35.36.05,53,9.63-.06,19.54,1.41,28.93-1.13,9.3-3.48,10.18-15.11,10.43-23.59.09-9.77.05-22.84-10.23-27.7C214.83,913.3,204.92,914.75,195.23,914.64Z" transform="translate(-183.7 -666.89)"/>
    <path class="a" d="M275.28,905.08c3.58,0,7.15.06,10.72.15.11,39.91-.14,79.84.12,119.75,11.93.2,23.86,0,35.81.11,0,3,0,6,.07,9-15.64.39-31.3.21-46.93.18Q274.38,969.69,275.28,905.08Z" transform="translate(-183.7 -666.89)"/>
    <path class="a" d="M366.63,905.07a97.42,97.42,0,0,1,15.18.32c7.95,43,16.79,85.93,25.3,128.88-3.93,0-7.84,0-11.75,0-2.07-11.21-4.46-22.36-6.43-33.59-9.75,0-19.5.07-29.23,0-3.54,10.93-4.63,22.43-7.45,33.54q-5.43,0-10.82-.11c2.88-20.75,8.34-41,11.77-61.63C357.79,950,362,927.5,366.63,905.07ZM371,933.8c-3.27,19.73-7.52,39.31-10,59.16a218.25,218.25,0,0,0,26.58.27c-4.41-24.59-8.88-49.16-13.2-73.75A78.45,78.45,0,0,0,371,933.8Z" transform="translate(-183.7 -666.89)"/>
    <path class="a" d="M529.37,905.35c14.88-.94,29.82-.62,44.72-.23,0,3,0,6.13,0,9.21-11,.22-22,0-33,.15-.45,16-.56,32.14,0,48.2,7.79.23,15.58.37,23.36.3.07,2.91.13,5.84.22,8.79-7.92,0-15.83,0-23.67,1.05-.34,17.39-.43,34.79.06,52.18,11.3.13,22.62-.3,33.93.36,0,2.82,0,5.66,0,8.5a406.73,406.73,0,0,1-45.66.18C529.19,991.14,529.55,948.25,529.37,905.35Z" transform="translate(-183.7 -666.89)"/>
    <path class="a" d="M604.25,905.42c3.61-.12,7.21-.21,10.84-.26.84,19.41-.22,38.84.53,58.25,13.22.05,26.58,1.32,39.69-.86,0-19.09-.49-38.2.19-57.27,3.75-.11,7.5-.18,11.27-.21q.69,64.68,0,129.4c-3.77,0-7.52-.09-11.25-.18-.62-20.86-.25-41.75-.16-62.63-12.79,0-25.64-.73-38.39.25l-1.11.79c-1.38,20.44.32,41-.8,61.48-3.63,0-7.24-.09-10.83-.16Q604.2,969.73,604.25,905.42Z" transform="translate(-183.7 -666.89)"/>
    <path class="a" d="M803.58,905.1q5.45.06,10.91.22c0,39.89,0,79.79-.07,119.68,12,.11,24,0,36.06.07,0,3,0,6,0,9.09-15.63.15-31.25.74-46.88.15Q802.85,969.72,803.58,905.1Z" transform="translate(-183.7 -666.89)"/>
    <path class="a" d="M876.94,905.37c13.38-.39,27.08-1.89,40.25,1.18,12.15,3.27,20.29,15.11,21,27.38,1,18.44.1,36.94.48,55.41,0,10.52.5,21.84-5.27,31.14-4.3,8.16-13.23,13-22.27,13.7a266.38,266.38,0,0,1-34.14,0c-.81-17.9-.16-35.81-.36-53.72C876.82,955.39,876.23,930.37,876.94,905.37Zm11,9.07q-.24,55.26,0,110.54c9-.23,18.37,1.18,27.19-1.39,8.81-3,11.74-13.29,12-21.64.18-19.7-.09-39.4,0-59.08.07-8.89-.7-19.66-8.73-25.18C909.41,911.87,898,915.08,888,914.44Z" transform="translate(-183.7 -666.89)"/>
    <path class="a" d="M973.79,905.12c14.93-.39,29.89-.66,44.82.21,0,2.92,0,5.83,0,8.77-11.29.34-22.57-.1-33.86.45.25,16,.21,31.89.07,47.86,8,.41,16,.5,24.07.57.08,2.75.17,5.54.27,8.32-8.11.5-16.23.66-24.34.7q.21,26.36,0,52.73c11.25.59,22.52.15,33.77.47,0,3,.06,6,.11,9-15,.52-30,.48-45,.09C973.66,991.21,973.56,948.16,973.79,905.12Z" transform="translate(-183.7 -666.89)"/>
    <path class="a" d="M1048.76,905.37c12.46-.77,25-.8,37.44-.36,10.17.22,20,7.16,22.43,17.22,2.95,11.21,3.25,23.7-1.37,34.52-2.55,6.34-8.47,10.16-14,13.68,5.12,21.57,14,42.11,18.59,63.82-3.77,0-7.52.09-11.27.09-6.32-20.8-12.61-41.61-18.59-62.5a178.92,178.92,0,0,0-22.33-.2c.2,20.91.08,41.84,0,62.76q-5.43-.12-10.82-.27C1048.33,991.21,1048.67,948.3,1048.76,905.37Zm10.91,9.21c.39,15.85.26,31.7.09,47.56,10-.64,20.32,1.2,30.11-1.3,9-4.63,10-16.15,9.34-25.11-.31-7.59-1.7-18-10.15-20.61C1079.4,913.21,1069.44,914.48,1059.67,914.58Z" transform="translate(-183.7 -666.89)"/>
  </g>
</svg>
