<svg xmlns="http://www.w3.org/2000/svg" width="226.44" height="88.29" viewBox="0 0 226.44 88.29">
  <defs>
    <style>
      .a {
        fill: #9f9f9f;
      }
    </style>
  </defs>
  <title>404_placeholder</title>
  <g>
    <path class="a" d="M63.68,59.4c2-1.76,4.88-1.93,7.39-1.46a5.83,5.83,0,0,1,4.15,3.3c1.08,2.27,1.08,4.87,1.08,7.33l-2.54.07c-.21-2.34.09-4.92-1.22-7s-4.1-2.11-6.08-1.21S64,63.67,63.88,65.62V80c0,2-.11,4.13,1,5.89,1.17,2.07,4,2.44,6.08,1.71,3-1.67,2.7-5.6,2.91-8.54h2.52c0,2.85,0,5.93-1.63,8.4a6.45,6.45,0,0,1-5.3,2.71c-2.24,0-4.77-.38-6.29-2.17-1.78-2.09-2.06-5-2.09-7.6-.06-4.65-.09-9.3,0-13.94C61.17,64,61.73,61.2,63.68,59.4Z" transform="translate(-0.15 -1.91)"/>
    <path class="a" d="M132,58c2.63-.62,5.7-.45,7.85,1.36,1.91,1.53,2.5,4.06,2.7,6.38.17,3.6,0,7.2,0,10.8,0,3.26.38,6.69-1,9.75a6.21,6.21,0,0,1-5,3.75c-2.36.28-5,.37-7-1.19a8.58,8.58,0,0,1-3-6.2c-.27-3.48-.11-7-.15-10.47a51.14,51.14,0,0,1,.38-8.48A7,7,0,0,1,132,58Zm.83,2.14c-2.43.51-3.46,3.26-3.46,5.5V81.79c0,2.3.91,4.9,3.16,5.86a5.13,5.13,0,0,0,6.39-1.91,9.28,9.28,0,0,0,.88-4.84V66.06a6.64,6.64,0,0,0-2.2-5.34,6.54,6.54,0,0,0-4.77-.61Z" transform="translate(-0.15 -1.91)"/>
    <path class="a" d="M.17,58.22a60.15,60.15,0,0,1,8.7,0,6.22,6.22,0,0,1,5.06,2.83c1.59,2.66,1.62,6,1,8.92A6.71,6.71,0,0,1,11.3,75c-2.67,1.11-5.63.46-8.43.69,0,4.66.12,9.33,0,14l-2.64,0C.12,79.19.16,68.7.17,58.22Zm2.64,2.26c0,4.32.17,8.63,0,13,2.35,0,4.77.35,7.07-.27,2.27-.85,2.48-3.69,2.54-5.76,0-2.39,0-5.58-2.5-6.76C7.6,60.16,5.18,60.51,2.81,60.48Z" transform="translate(-0.15 -1.91)"/>
    <path class="a" d="M22.35,58.11H25V87.35c2.91.05,5.83,0,8.74,0v2.2c-3.82.1-7.64.06-11.46,0Q22.15,73.93,22.35,58.11Z" transform="translate(-0.15 -1.91)"/>
    <path class="a" d="M44.65,58.11a24.17,24.17,0,0,1,3.71.07c1.94,10.51,4.1,21,6.18,31.47H51.67c-.51-2.73-1.09-5.45-1.57-8.2H43c-.86,2.67-1.13,5.47-1.82,8.18H38.5c.7-5.07,2-10,2.88-15C42.5,69.11,43.52,63.62,44.65,58.11Zm1.08,7c-.8,4.82-1.84,9.6-2.45,14.44a52.06,52.06,0,0,0,6.49.07c-1.08-6-2.17-12-3.22-18a18.75,18.75,0,0,0-.82,3.54Z" transform="translate(-0.15 -1.91)"/>
    <path class="a" d="M84.38,58.22c3.64-.24,7.28-.16,10.92-.06v2.25H87.23c-.11,3.92-.14,7.85,0,11.77,1.9.06,3.8.09,5.7.07V74.4a42.79,42.79,0,0,0-5.77.26c-.09,4.24-.11,8.49,0,12.74,2.76,0,5.52-.08,8.28.08v2.08a98.57,98.57,0,0,1-11.14,0C84.3,79.16,84.43,68.69,84.38,58.22Z" transform="translate(-0.15 -1.91)"/>
    <path class="a" d="M102.66,58.23c.88,0,1.77,0,2.65-.06.21,4.74,0,9.48.13,14.22,3.23,0,6.49.32,9.69-.21,0-4.66-.12-9.33,0-14,.91,0,1.83,0,2.75,0q.16,15.78,0,31.59h-2.74c-.16-5.09-.06-10.19,0-15.29-3.12,0-6.26-.18-9.38.06l-.27.2c-.33,5,.08,10-.19,15h-2.64Q102.65,73.93,102.66,58.23Z" transform="translate(-0.15 -1.91)"/>
    <path class="a" d="M151.3,58.11l2.66.06V87.39h8.81v2.22c-3.82,0-7.63.18-11.45,0Q151.16,73.94,151.3,58.11Z" transform="translate(-0.15 -1.91)"/>
    <path class="a" d="M169.24,58.22c3.26-.1,6.61-.46,9.82.29a7.31,7.31,0,0,1,5.13,6.68c.26,4.5,0,9,.12,13.53,0,2.57.12,5.33-1.29,7.6a6.71,6.71,0,0,1-5.43,3.35,64.47,64.47,0,0,1-8.34,0c-.2-4.37,0-8.74-.09-13.11C169.21,70.43,169.06,64.32,169.24,58.22Zm2.69,2.21q-.06,13.5,0,27c2.2-.06,4.48.29,6.64-.34s2.86-3.24,2.94-5.28V67.39c0-2.18-.17-4.8-2.14-6.15C177.16,59.81,174.38,60.59,171.93,60.43Z" transform="translate(-0.15 -1.91)"/>
    <path class="a" d="M192.88,58.16c3.64-.1,7.3-.16,10.94,0V60.3c-2.76.08-5.51,0-8.27.11.06,3.89,0,7.79,0,11.68,1.95.1,3.91.13,5.87.14a18.72,18.72,0,0,0,.07,2c-2,.12-4,.16-5.94.17V87.27c2.75.14,5.5,0,8.25.11v2.2c-3.65.12-7.32.11-11,0C192.85,79.18,192.82,68.67,192.88,58.16Z" transform="translate(-0.15 -1.91)"/>
    <path class="a" d="M211.18,58.22c3-.19,6.1-.2,9.14-.09a5.78,5.78,0,0,1,5.48,4.21,13.13,13.13,0,0,1-.34,8.42c-.62,1.55-2.06,2.48-3.41,3.34,1.25,5.27,3.41,10.28,4.54,15.58h-2.75c-1.55-5.08-3.08-10.16-4.54-15.26a43.08,43.08,0,0,0-5.45,0V89.69l-2.65-.07C211.08,79.18,211.16,68.7,211.18,58.22Zm2.66,2.25c.1,3.87.07,7.74,0,11.61,2.44-.16,5,.29,7.35-.32,2.19-1.13,2.44-3.94,2.28-6.13-.08-1.85-.42-4.38-2.48-5-2.33-.52-4.76-.19-7.15-.16Z" transform="translate(-0.15 -1.91)"/>
  </g>
  <g>
    <path class="a" d="M91.75,33.64v-8.5H77.26V22.36L91.18,2.44h4.56V21.83h4.37v3.31H95.74v8.5Zm0-11.81V11.41q0-2.45.15-4.89h-.15c-1,1.82-1.72,3.17-2.59,4.61l-7.63,10.6v.1Z" transform="translate(-0.15 -1.91)"/>
    <path class="a" d="M124.06,17.7c0,10.61-3.94,16.47-10.85,16.47-6.1,0-10.23-5.72-10.32-16S107.4,1.91,113.74,1.91C120.31,1.91,124.06,7.77,124.06,17.7Zm-17,.48c0,8.11,2.5,12.72,6.34,12.72,4.32,0,6.38-5,6.38-13,0-7.68-2-12.72-6.33-12.72C109.8,5.17,107.11,9.69,107.11,18.18Z" transform="translate(-0.15 -1.91)"/>
    <path class="a" d="M141,33.64v-8.5H126.5V22.36L140.42,2.44H145V21.83h4.37v3.31H145v8.5Zm0-11.81V11.41c0-1.63.05-3.26.14-4.89H141c-1,1.82-1.73,3.17-2.59,4.61l-7.63,10.6v.1Z" transform="translate(-0.15 -1.91)"/>
  </g>
</svg>
