<?xml version="1.0" encoding="utf-8"?>
<!-- Generator: Adobe Illustrator 24.0.2, SVG Export Plug-In . SVG Version: 6.00 Build 0)  -->
<svg version="1.1" id="Livello_1" xmlns="http://www.w3.org/2000/svg" xmlns:xlink="http://www.w3.org/1999/xlink" x="0px" y="0px"
	 width="25px" height="25px" viewBox="0 0 25 25" style="enable-background:new 0 0 25 25;" xml:space="preserve">
<title>pdf icon</title>
<path d="M18,6.3h5.1L16,0v4.3C16,5.4,16.9,6.3,18,6.3z"/>
<path d="M16.3,7.8c-1.1,0-2-0.9-2-2V0H3.9c-1.1,0-2,0.9-2,2v21c0,1.1,0.9,2,2,2h17.2c1.1,0,2-0.9,2-2V7.8H16.3z M9.1,17.1
	c0.3,0,0.5-0.2,0.5-0.5c0-0.5,0.3-0.8,0.8-0.8c0.5,0,0.9,0.3,0.9,0.8c0,1.2-1,2.2-2.2,2.2c-1.2,0-2.2-1-2.2-2.2c0-1.3,0-2.8,0-4.1
	c0-1.2,1-2.2,2.2-2.2c1.2,0,2.2,0.9,2.2,2.2c0,1-1.7,1.1-1.7,0c0-0.3-0.2-0.5-0.5-0.5c-0.3,0-0.5,0.2-0.5,0.5v4.1
	C8.6,16.8,8.8,17.1,9.1,17.1z M18.1,15.7c0,0.5-0.1,1-0.5,1.4l-1.1,1.3c-0.3,0.4-1,0.4-1.3,0l-1.1-1.3c-0.3-0.4-0.5-0.9-0.5-1.4
	v-4.6c0-1.1,1.7-1.1,1.7,0c0,1.8,0,2.8,0,4.6c0,0.1,0,0.2,0.1,0.3l0.4,0.5l0.4-0.5c0.1-0.1,0.1-0.2,0.1-0.3c0-1.8,0-2.8,0-4.6
	c0-1.1,1.7-1.1,1.7,0V15.7z"/>
</svg>
