<svg xmlns="http://www.w3.org/2000/svg" width="25" height="25" viewBox="0 0 25 24.38">
	<title>github icon</title>
	<path d="M12.5.31A12.5,12.5,0,0,0,8.55,24.67c.62.11.85-.27.85-.6s0-1.09,0-2.13c-3.48.76-4.22-1.67-4.22-1.67a3.26,3.26,0,0,0-1.38-1.83c-1.14-.78.08-.76.08-.76A2.63,2.63,0,0,1,5.79,19a2.65,2.65,0,0,0,3.63,1,2.73,2.73,0,0,1,.8-1.67C7.44,18,4.52,17,4.52,12.16A4.83,4.83,0,0,1,5.81,8.8a4.49,4.49,0,0,1,.12-3.31S7,5.16,9.37,6.77a12.56,12.56,0,0,1,3.13-.42,12.56,12.56,0,0,1,3.13.42C18,5.16,19.06,5.49,19.06,5.49a4.46,4.46,0,0,1,.13,3.31,4.82,4.82,0,0,1,1.28,3.36c0,4.8-2.92,5.85-5.7,6.16a3,3,0,0,1,.84,2.32c0,1.67,0,3,0,3.43s.22.72.86.6A12.5,12.5,0,0,0,12.5.31Z" transform="translate(0 -0.31)"/>
</svg>
