<svg xmlns="http://www.w3.org/2000/svg" width="800" height="200" viewBox="0 0 800 200">
  <defs>
    <style>
      .a {
        fill: #e2e2e2;
      }

      .b {
        fill: #9f9f9f;
      }
    </style>
  </defs>
  <title>project_placeholder</title>
  <rect class="a" width="800" height="200"/>
  <g>
    <path class="b" d="M470.32,25.07c13.62-7.49,32.1-5.53,43.44,5.27-2.66,3.77-5,7.88-8.13,11.24-2.64-1.7-4.93-4-7.91-5.09-7-2.79-15.65-2.23-21.51,2.79-8.53,6.39-9.65,19.29-5,28.31,3.22,5.54,9.25,9.74,15.81,9.67,4.55,0,9.51-.28,13.36-3,.84-6.2.13-12.48.34-18.72,5.15,0,10.33,0,15.49,0-.13,8.11.39,16.26-.21,24.33-4.16,5.56-10.8,8.77-17.44,10.3C488,92.37,476,91.5,467,84.82a34.17,34.17,0,0,1-13.42-19.61c-2-9.28-1.05-19.5,3.94-27.72A41.43,41.43,0,0,1,470.32,25.07Z"/>
    <path class="b" d="M200.8,22c5,.11,10.06.12,15.09,0,0,22.72-.06,45.44,0,68.16a129.49,129.49,0,0,1-15.26.08c-.3-20.77-.07-41.56-.1-62.33C200.56,25.94,200.65,24,200.8,22Z"/>
    <path class="b" d="M252.07,22.38c6.19-.26,12.39-.14,18.59-.14,1.9-.34,2.75,1.55,3.49,2.92Q281.05,39.5,287.6,54a23.88,23.88,0,0,0,2.74,4.91c4.17-8.36,7.93-16.93,12.1-25.29,1.78-3.4,2.76-7.2,4.93-10.4.61-1.13,2.09-.84,3.15-1,5.94,0,11.89-.07,17.83.14.14,20.79,0,41.57.11,62.37,0,2-.16,3.94-.33,5.92q-7.56-.15-15.09,0-.12-17.55,0-35.1c0-2.1-.1-4.21-.3-6.3a24.93,24.93,0,0,0-2.07,3.35c-4.44,9.54-9.42,18.81-13.84,28.35-.88,1.38-1.3,3.65-3.21,3.89-2.67.24-5.52.56-8.1-.29C279.2,73,274.23,60.68,267.66,49.26a86.1,86.1,0,0,0-.36,10.89q0,15.24,0,30.48c-5-.11-10.08-.09-15.13,0-.56-12.71-.08-25.43-.23-38.15C252,42.45,251.81,32.41,252.07,22.38Z"/>
    <path class="b" d="M385.2,22.53c4.24-.61,8.58-.26,12.86-.26,2.22-.36,2.83,2.05,3.58,3.6,7.1,16.86,14.47,33.6,21.69,50.41,1.77,4.71,4.33,9.09,5.72,13.93-5.43.28-10.87.26-16.29,0-2-4.73-3.65-9.63-6.05-14.17a17.61,17.61,0,0,0-4.8-.38c-7.89.12-15.77,0-23.65,0-2.16,4.83-3.94,9.83-6.31,14.57-5.37.13-10.75.19-16.11,0,3.45-9,7.3-17.8,11.26-26.57,4.66-10.88,9.25-21.8,14.11-32.6C382.49,28.22,383.32,25.09,385.2,22.53Zm-1,39.68h16.21c-1.95-6.58-5.14-12.7-7.89-19C389.6,49.49,386.68,55.76,384.21,62.21Z"/>
    <path class="b" d="M549.13,22.37q24.6-.35,49.22,0,.12,6.7,0,13.42c-11.2.22-22.41.13-33.61,0-.22,4.71-.22,9.44,0,14.15,10.15-.08,20.3-.24,30.45.07,0,4.32.07,8.65-.09,13-10.14-.07-20.3-.19-30.45,0-.09,4.6-.11,9.2.05,13.8,11.53,0,23.06-.27,34.58.14a119.52,119.52,0,0,1,0,13.25c-8,.33-16,.06-23.94.15-8.72-.09-17.45.18-26.17-.14-.41-18.21-.06-36.44-.17-54.66C549,31.18,548.94,26.77,549.13,22.37Z"/>
    <path class="b" d="M312.63,125.16c3.51-3.09,8.6-3.39,13-2.57A10.27,10.27,0,0,1,333,128.4c2,4,1.88,8.57,2,12.91-1.5.05-3,.08-4.48.11-.37-4.12.16-8.65-2.14-12.31-2.3-3.45-7.21-3.71-10.71-2.11s-4.42,5.7-4.53,9.13c-.09,8.45.07,16.9,0,25.35,0,3.5-.18,7.27,1.72,10.37,2.05,3.65,7.08,4.29,10.7,3,5.3-2.94,4.75-9.85,5.12-15,1.47,0,3,0,4.45,0,.06,5,0,10.45-2.88,14.79a11.31,11.31,0,0,1-9.34,4.76c-3.93.1-8.38-.66-11.07-3.8-3.13-3.69-3.63-8.75-3.68-13.4-.1-8.18-.15-16.36.06-24.54C308.22,133.2,309.21,128.32,312.63,125.16Z"/>
    <path class="b" d="M432.87,122.7c4.64-1.1,10-.8,13.83,2.39,3.35,2.69,4.4,7.15,4.75,11.23.3,6.34,0,12.68.09,19-.09,5.73.67,11.78-1.8,17.16a10.91,10.91,0,0,1-8.76,6.6c-4.15.51-8.89.65-12.35-2.09-3.39-2.54-4.87-6.84-5.23-10.91-.47-6.14-.19-12.3-.27-18.44.05-5-.21-10,.67-14.93C424.7,128.06,428.07,123.72,432.87,122.7Zm1.47,3.77c-4.29.89-6.1,5.73-6.1,9.67,0,9.48,0,19,0,28.44-.07,4,1.62,8.62,5.58,10.31,3.86,1.48,9.11.46,11.24-3.36,1.54-2.55,1.55-5.64,1.55-8.52-.08-8.7,0-17.42,0-26.12.05-3.45-1.07-7.2-3.87-9.4C440.28,125.87,437.11,126,434.34,126.47Z"/>
    <path class="b" d="M200.82,123.08a108.79,108.79,0,0,1,15.32,0c3.47.31,7.15,1.82,8.9,5,2.81,4.69,2.86,10.5,1.82,15.71-.76,3.68-2.82,7.43-6.46,8.91-4.7,2-9.91.81-14.84,1.2,0,8.22.21,16.45-.08,24.66l-4.65-.08C200.72,160,200.81,141.54,200.82,123.08Zm4.65,4c0,7.59.3,15.19,0,22.79,4.14,0,8.4.61,12.43-.48,4-1.5,4.38-6.49,4.49-10.14,0-4.2,0-9.82-4.4-11.91C213.89,126.49,209.63,127.11,205.47,127.07Z"/>
    <path class="b" d="M239.88,123c1.53,0,3.07,0,4.6.06.05,17.16-.06,34.32.06,51.47,5.12.09,10.25,0,15.39,0,0,1.29,0,2.58,0,3.88-6.73.17-13.46.1-20.17.08Q239.49,150.74,239.88,123Z"/>
    <path class="b" d="M279.14,123a43,43,0,0,1,6.52.14c3.42,18.5,7.22,36.94,10.88,55.4h-5.05c-.89-4.82-1.92-9.61-2.76-14.44-4.19,0-8.39,0-12.57,0-1.52,4.7-2,9.64-3.2,14.41-1.56,0-3.11,0-4.65,0,1.23-8.92,3.58-17.62,5.06-26.49C275.34,142.28,277.14,132.59,279.14,123ZM281,135.3c-1.41,8.48-3.23,16.9-4.31,25.43a94.61,94.61,0,0,0,11.42.12c-1.89-10.57-3.81-21.13-5.67-31.7A33.11,33.11,0,0,0,281,135.3Z"/>
    <path class="b" d="M349.09,123.07c6.39-.4,12.82-.26,19.22-.1,0,1.32,0,2.64,0,4-4.74.1-9.48,0-14.21.07-.19,6.9-.24,13.81,0,20.71,3.35.1,6.7.16,10,.13,0,1.26.06,2.51.09,3.78a78.43,78.43,0,0,0-10.17.45c-.14,7.48-.18,15,0,22.43,4.86.06,9.72-.13,14.58.16,0,1.21,0,2.43,0,3.65a173.73,173.73,0,0,1-19.63.08C349,160,349.17,141.51,349.09,123.07Z"/>
    <path class="b" d="M381.27,123.1c1.55,0,3.11-.09,4.66-.11.36,8.34-.09,16.69.23,25,5.68,0,11.43.57,17.06-.37,0-8.21-.21-16.42.08-24.62,1.62,0,3.23-.07,4.85-.09q.3,27.81,0,55.62c-1.62,0-3.23,0-4.84-.08-.26-9-.1-17.94-.07-26.92-5.49,0-11-.31-16.5.11l-.47.34c-.6,8.79.13,17.62-.35,26.43l-4.65-.07Q381.25,150.75,381.27,123.1Z"/>
    <path class="b" d="M467,123c1.56,0,3.13,0,4.69.09,0,17.15,0,34.29,0,51.44,5.16.05,10.33,0,15.5,0,0,1.3,0,2.6,0,3.91-6.72.06-13.43.31-20.15.06Q466.63,150.74,467,123Z"/>
    <path class="b" d="M498.48,123.08c5.75-.17,11.64-.81,17.31.51,5.22,1.4,8.72,6.49,9,11.77.46,7.92.05,15.88.21,23.81,0,4.52.21,9.39-2.26,13.39a11.77,11.77,0,0,1-9.58,5.89,112.21,112.21,0,0,1-14.67,0c-.35-7.69-.07-15.39-.16-23.08C498.43,144.58,498.18,133.83,498.48,123.08Zm4.74,3.9q-.11,23.76,0,47.51c3.88-.1,7.89.51,11.69-.59,3.78-1.29,5-5.72,5.17-9.31.08-8.46,0-16.93,0-25.39,0-3.82-.3-8.45-3.75-10.82C512.44,125.88,507.54,127.26,503.22,127Z"/>
    <path class="b" d="M540.11,123c6.42-.16,12.85-.28,19.27.1v3.77c-4.85.14-9.7,0-14.55.19.11,6.85.09,13.71,0,20.57,3.44.17,6.9.21,10.35.24,0,1.19.07,2.38.11,3.58-3.48.22-7,.28-10.46.3.06,7.55.07,15.11,0,22.67,4.84.25,9.68.06,14.52.2,0,1.28,0,2.57,0,3.86-6.44.22-12.89.2-19.32,0C540.06,160,540,141.47,540.11,123Z"/>
    <path class="b" d="M572.33,123.08c5.36-.33,10.74-.34,16.1-.15a10.16,10.16,0,0,1,9.64,7.4c1.27,4.82,1.4,10.18-.59,14.84-1.1,2.72-3.64,4.36-6,5.87,2.2,9.28,6,18.1,8,27.44-1.62,0-3.23,0-4.84,0-2.72-9-5.42-17.89-8-26.87a76.9,76.9,0,0,0-9.6-.08c.09,9,0,18,0,27q-2.34,0-4.65-.12C572.15,160,572.3,141.53,572.33,123.08Zm4.69,4c.17,6.81.12,13.63,0,20.44,4.3-.27,8.74.52,12.94-.56,3.87-2,4.31-6.94,4-10.79-.13-3.26-.73-7.71-4.36-8.86C585.51,126.45,581.22,127,577,127Z"/>
  </g>
</svg>
