<svg xmlns="http://www.w3.org/2000/svg" width="226.61" height="90.22" viewBox="0 0 226.61 90.22">
  <defs>
    <style>
      .a {
        fill: #9f9f9f;
      }
    </style>
  </defs>
  <title>skill_placeholder</title>
  <g>
    <path class="a" d="M167.94,85.44c7.74-4.25,18.23-3.14,24.67,3A57.17,57.17,0,0,1,188,94.82c-1.5-1-2.8-2.26-4.49-2.89-4-1.59-8.9-1.27-12.23,1.59-4.84,3.62-5.48,11-2.81,16.07a10.62,10.62,0,0,0,9,5.49c2.58,0,5.4-.15,7.59-1.68.47-3.52.07-7.09.19-10.63,2.93,0,5.87,0,8.8,0-.08,4.61.22,9.24-.12,13.82-2.37,3.15-6.14,5-9.91,5.85-6,1.24-12.84.74-17.92-3.05a19.43,19.43,0,0,1-7.63-11.14,21.81,21.81,0,0,1,2.24-15.75A23.68,23.68,0,0,1,167.94,85.44Z" transform="translate(-14.7 -82.89)"/>
    <path class="a" d="M14.86,83.71c2.86.06,5.71.06,8.57,0,0,12.91,0,25.81,0,38.72a73.59,73.59,0,0,1-8.66,0c-.17-11.79,0-23.6-.06-35.4C14.72,85.94,14.77,84.82,14.86,83.71Z" transform="translate(-14.7 -82.89)"/>
    <path class="a" d="M44,83.92c3.52-.15,7-.09,10.56-.08,1.08-.2,1.56.87,2,1.65q3.91,8.15,7.64,16.37a13.18,13.18,0,0,0,1.56,2.79c2.36-4.75,4.5-9.61,6.87-14.36,1-1.94,1.57-4.09,2.8-5.91.34-.64,1.19-.48,1.79-.56,3.37,0,6.75,0,10.12.08.08,11.8,0,23.61.07,35.42,0,1.12-.1,2.24-.19,3.36-2.86-.05-5.72-.06-8.57,0q-.08-10,0-19.93c0-1.2-.06-2.39-.17-3.58a14.32,14.32,0,0,0-1.18,1.9c-2.52,5.42-5.35,10.69-7.86,16.11-.5.78-.74,2.07-1.82,2.21a11.72,11.72,0,0,1-4.61-.17c-3.59-6.57-6.41-13.55-10.15-20a51.15,51.15,0,0,0-.2,6.19c0,5.77,0,11.53,0,17.31-2.87-.06-5.73-.05-8.59,0-.32-7.22-.05-14.45-.14-21.67C44,95.31,43.83,89.61,44,83.92Z" transform="translate(-14.7 -82.89)"/>
    <path class="a" d="M119.59,84a50.93,50.93,0,0,1,7.31-.15c1.26-.2,1.6,1.17,2,2,4,9.58,8.22,19.09,12.32,28.64,1,2.67,2.46,5.16,3.25,7.91-3.08.16-6.17.15-9.25,0-1.13-2.69-2.08-5.47-3.44-8a10,10,0,0,0-2.73-.22c-4.47.07-9,0-13.43,0-1.22,2.74-2.24,5.58-3.58,8.27-3,.08-6.11.11-9.15,0,2-5.1,4.14-10.11,6.39-15.09,2.65-6.18,5.26-12.39,8-18.52A24.42,24.42,0,0,1,119.59,84ZM119,106.54h9.21a93.83,93.83,0,0,0-4.48-10.78C122.09,99.31,120.43,102.88,119,106.54Z" transform="translate(-14.7 -82.89)"/>
    <path class="a" d="M212.7,83.91q14-.19,28,0,.06,3.81,0,7.62c-6.36.13-12.73.08-19.09,0-.12,2.68-.13,5.36,0,8,5.76,0,11.53-.14,17.29,0,0,2.45,0,4.91,0,7.37-5.77,0-11.54-.11-17.3,0-.05,2.61-.07,5.23,0,7.84,6.54,0,13.09-.15,19.64.08a67.55,67.55,0,0,1,0,7.53c-4.53.19-9.07,0-13.6.08-4.95-.05-9.91.1-14.86-.08-.23-10.34,0-20.7-.1-31C212.64,88.91,212.59,86.41,212.7,83.91Z" transform="translate(-14.7 -82.89)"/>
    <path class="a" d="M78.38,142.29c2-1.76,4.88-1.93,7.39-1.46a5.8,5.8,0,0,1,4.15,3.3C91,146.4,91,149,91,151.46l-2.54.07c-.21-2.34.09-4.92-1.22-7s-4.1-2.11-6.08-1.21-2.51,3.24-2.58,5.19c0,4.8,0,9.6,0,14.4,0,2-.11,4.13,1,5.89,1.17,2.07,4,2.44,6.08,1.71,3-1.67,2.7-5.6,2.91-8.54.83,0,1.68,0,2.52,0,0,2.85,0,5.93-1.63,8.4a6.44,6.44,0,0,1-5.3,2.71c-2.24,0-4.77-.38-6.29-2.17-1.78-2.09-2.06-5-2.09-7.6-.06-4.65-.09-9.3,0-13.94C75.87,146.86,76.43,144.09,78.38,142.29Z" transform="translate(-14.7 -82.89)"/>
    <path class="a" d="M146.67,140.89c2.63-.62,5.7-.45,7.85,1.36,1.91,1.53,2.5,4.06,2.7,6.38.17,3.6,0,7.2.05,10.8-.05,3.26.38,6.69-1,9.75a6.22,6.22,0,0,1-5,3.75c-2.36.28-5.05.37-7-1.19a8.56,8.56,0,0,1-3-6.2c-.27-3.48-.11-7-.15-10.47a51,51,0,0,1,.38-8.48A7.05,7.05,0,0,1,146.67,140.89Zm.83,2.14c-2.43.51-3.46,3.26-3.46,5.5,0,5.38,0,10.76,0,16.15,0,2.3.91,4.9,3.16,5.86s5.18.25,6.39-1.91a9.25,9.25,0,0,0,.88-4.84c0-4.95,0-9.89,0-14.84a6.62,6.62,0,0,0-2.2-5.34A6.53,6.53,0,0,0,147.5,143Z" transform="translate(-14.7 -82.89)"/>
    <path class="a" d="M14.87,141.11a60.15,60.15,0,0,1,8.7,0,6.24,6.24,0,0,1,5.06,2.83c1.59,2.66,1.62,6,1,8.92A6.7,6.7,0,0,1,26,157.92c-2.67,1.11-5.63.46-8.43.69,0,4.66.12,9.33,0,14l-2.64-.05C14.82,162.08,14.86,151.59,14.87,141.11Zm2.64,2.26c0,4.32.17,8.63,0,12.95,2.35,0,4.77.35,7.07-.27,2.27-.85,2.48-3.69,2.54-5.76,0-2.39,0-5.58-2.5-6.76C22.3,143.05,19.88,143.4,17.51,143.37Z" transform="translate(-14.7 -82.89)"/>
    <path class="a" d="M37.05,141c.88,0,1.75,0,2.62,0,0,9.75,0,19.5,0,29.24,2.91.05,5.83,0,8.74,0,0,.73,0,1.46,0,2.2-3.82.1-7.64.06-11.46.05Q36.84,156.81,37.05,141Z" transform="translate(-14.7 -82.89)"/>
    <path class="a" d="M59.35,141a24.17,24.17,0,0,1,3.71.07c1.94,10.51,4.1,21,6.18,31.47H66.37c-.51-2.73-1.09-5.45-1.57-8.2-2.38,0-4.76,0-7.14,0-.86,2.67-1.13,5.47-1.82,8.18l-2.64,0c.7-5.07,2-10,2.88-15C57.2,152,58.22,146.51,59.35,141Zm1.08,7c-.8,4.82-1.84,9.6-2.45,14.44a52.06,52.06,0,0,0,6.49.07c-1.08-6-2.17-12-3.22-18A18.35,18.35,0,0,0,60.43,148.05Z" transform="translate(-14.7 -82.89)"/>
    <path class="a" d="M99.08,141.11c3.64-.24,7.28-.16,10.92-.06,0,.74,0,1.49,0,2.25-2.69,0-5.38,0-8.07,0-.11,3.92-.14,7.85,0,11.77,1.9.06,3.8.09,5.7.07,0,.71,0,1.43,0,2.15a42.71,42.71,0,0,0-5.77.26c-.09,4.24-.11,8.49,0,12.74,2.76,0,5.52-.08,8.28.08,0,.69,0,1.38,0,2.08a98.57,98.57,0,0,1-11.14,0C99,162.05,99.13,151.58,99.08,141.11Z" transform="translate(-14.7 -82.89)"/>
    <path class="a" d="M117.36,141.12c.88,0,1.77-.05,2.65-.06.21,4.74-.05,9.48.13,14.22,3.23,0,6.49.32,9.69-.21,0-4.66-.12-9.33,0-14,.91,0,1.83-.05,2.75-.05q.17,15.78,0,31.59l-2.74,0c-.16-5.09-.06-10.19,0-15.29-3.12,0-6.26-.18-9.38.06l-.27.2c-.33,5,.08,10-.19,15l-2.64,0Q117.35,156.82,117.36,141.12Z" transform="translate(-14.7 -82.89)"/>
    <path class="a" d="M166,141l2.66.06c0,9.74,0,19.48,0,29.22,2.93,0,5.87,0,8.81,0q0,1.11,0,2.22c-3.82,0-7.63.18-11.45,0Q165.85,156.83,166,141Z" transform="translate(-14.7 -82.89)"/>
    <path class="a" d="M183.94,141.11c3.26-.1,6.61-.46,9.82.29a7.32,7.32,0,0,1,5.13,6.68c.26,4.5,0,9,.12,13.53,0,2.57.12,5.33-1.29,7.6a6.71,6.71,0,0,1-5.43,3.35,64.47,64.47,0,0,1-8.34,0c-.2-4.37,0-8.74-.09-13.11C183.91,153.32,183.76,147.21,183.94,141.11Zm2.69,2.21q-.06,13.5,0,27c2.2-.06,4.48.29,6.64-.34s2.86-3.24,2.94-5.28c0-4.81,0-9.62,0-14.42,0-2.18-.17-4.8-2.14-6.15C191.86,142.7,189.08,143.48,186.63,143.32Z" transform="translate(-14.7 -82.89)"/>
    <path class="a" d="M207.58,141.05c3.64-.1,7.3-.16,10.94,0,0,.71,0,1.42,0,2.14-2.76.08-5.51,0-8.27.11.06,3.89.05,7.79,0,11.68,1.95.1,3.91.13,5.87.14,0,.68,0,1.36.07,2-2,.12-4,.16-5.94.17,0,4.29,0,8.58,0,12.87,2.75.14,5.5,0,8.25.11,0,.73,0,1.46,0,2.2-3.65.12-7.32.11-11,0C207.55,162.07,207.52,151.56,207.58,141.05Z" transform="translate(-14.7 -82.89)"/>
    <path class="a" d="M225.88,141.11c3-.19,6.1-.2,9.14-.09a5.78,5.78,0,0,1,5.48,4.21,13.13,13.13,0,0,1-.34,8.42c-.62,1.55-2.06,2.48-3.41,3.34,1.25,5.27,3.41,10.28,4.54,15.58l-2.75,0c-1.55-5.08-3.08-10.16-4.54-15.26a43.1,43.1,0,0,0-5.45-.05c0,5.1,0,10.21,0,15.32l-2.65-.07C225.78,162.07,225.86,151.59,225.88,141.11Zm2.66,2.25c.1,3.87.07,7.74,0,11.61,2.44-.16,5,.29,7.35-.32,2.19-1.13,2.44-3.94,2.28-6.13-.08-1.85-.42-4.38-2.48-5C233.36,143,230.93,143.33,228.54,143.36Z" transform="translate(-14.7 -82.89)"/>
  </g>
</svg>
